<svg width="1289" height="233" viewBox="0 0 1289 233" fill="none" xmlns="http://www.w3.org/2000/svg">
    <path d="M105.414 168.664H187.596C189.599 180.43 190.606 190.466 190.606 198.783C190.606 203.086 190.392 207.462 189.961 211.905C189.531 216.356 188.737 221.587 187.596 227.61H6.884L0 214.702L89.926 64.1106H16.35C14.912 57.8036 13.984 52.2776 13.554 47.5446C13.123 42.8116 12.909 38.2946 12.909 33.9916C12.909 29.6886 13.123 25.3186 13.554 20.8686C13.984 16.4256 14.912 11.1876 16.35 5.16255H191.467L195.769 18.9316L105.414 168.664Z" fill="#231F20"/>
    <path d="M367.864 54.643C358.681 54.643 350.794 57.515 344.2 63.248C337.598 68.991 333.725 77.878 332.582 89.925H401.424C400.846 79.889 397.768 71.498 392.173 64.755C386.58 58.02 378.472 54.643 367.864 54.643ZM333.442 139.406C336.595 151.17 342.115 159.486 350.008 164.361C357.894 169.242 368.294 171.676 381.202 171.676C389.518 171.676 398.843 170.674 409.169 168.664C419.494 166.661 429.673 163.648 439.718 159.628C443.731 167.09 447.248 175.977 450.259 186.305C453.271 196.63 454.919 207.386 455.206 218.575C429.673 228.039 403.576 232.773 376.899 232.773C356.246 232.773 338.532 229.903 323.761 224.167C308.984 218.434 296.938 210.473 287.619 200.289C278.295 190.11 271.411 177.989 266.966 163.931C262.516 149.88 260.298 134.532 260.298 117.893C260.298 101.542 262.591 86.202 267.183 71.854C271.767 57.515 278.652 45.037 287.835 34.421C297.01 23.813 308.488 15.422 322.256 9.25C336.025 3.087 352.086 0 370.446 0C385.645 0 399.198 2.582 411.106 7.746C423.005 12.909 433.115 20.008 441.438 29.043C449.756 38.08 456.135 48.984 460.586 61.744C465.03 74.511 467.255 88.352 467.255 103.263C467.255 111.008 466.892 117.966 466.179 124.131C465.46 130.303 464.814 135.392 464.242 139.406H333.442Z" fill="#231F20"/>
    <path d="M635.911 0.859863C648.53 0.859863 661.148 1.93686 673.773 4.08786C686.392 6.23986 697.795 10.7569 707.98 17.6409C718.159 24.5259 726.481 34.4219 732.934 47.3299C739.39 60.2379 742.615 77.3059 742.615 98.5309V227.18C735.153 228.613 728.417 229.546 722.393 229.977C716.369 230.407 711.058 230.623 706.474 230.623C701.593 230.623 696.147 230.407 690.124 229.977C684.099 229.546 677.356 228.613 669.901 227.18V106.276C669.901 91.0749 667.031 80.1759 661.296 73.5759C655.556 66.9809 646.807 63.6789 635.049 63.6789C631.89 63.6789 628.521 63.9679 624.938 64.5409C621.348 65.1179 619.13 65.6899 618.27 66.2609V227.18C610.808 228.613 604.07 229.546 598.047 229.977C592.024 230.407 586.712 230.623 582.128 230.623C577.246 230.623 571.801 230.407 565.778 229.977C559.754 229.546 553.01 228.613 545.555 227.18V15.9209C555.592 12.4779 567.781 9.10986 582.128 5.80786C596.467 2.51386 614.397 0.859863 635.911 0.859863Z" fill="#231F20"/>
    <path d="M904.383 227.18C896.921 228.323 890.183 229.183 884.16 229.76C878.137 230.332 872.685 230.622 867.81 230.622C862.93 230.622 857.484 230.332 851.46 229.76C845.436 229.183 838.835 228.323 831.667 227.18V5.16212C837.974 3.73212 844.213 2.73013 850.385 2.15213C856.549 1.57913 862.499 1.29213 868.241 1.29213C873.686 1.29213 879.568 1.57913 885.881 2.15213C892.189 2.73013 898.359 3.73212 904.383 5.16212V227.18Z" fill="#231F20"/>
    <path d="M1045.07 65.8306H981.388C979.951 60.0956 979.022 54.7176 978.592 49.6956C978.161 44.6816 977.946 39.8746 977.946 35.2816C977.946 30.6966 978.161 25.9636 978.592 21.0836C979.022 16.2106 979.951 10.9046 981.388 5.16261H1181.46C1182.89 10.9046 1183.83 16.2106 1184.26 21.0836C1184.69 25.9636 1184.9 30.6966 1184.9 35.2816C1184.9 39.8746 1184.69 44.6816 1184.26 49.6956C1183.83 54.7176 1182.89 60.0956 1181.46 65.8306H1117.78V227.181C1110.32 228.323 1103.58 229.184 1097.56 229.761C1091.54 230.333 1086.08 230.623 1081.21 230.623C1076.33 230.623 1070.88 230.333 1064.86 229.761C1058.84 229.184 1052.24 228.323 1045.07 227.181V65.8306Z" fill="#231F20"/>
    <path d="M1257.59 63.5043C1242.58 63.5043 1230.41 51.3343 1230.41 36.3223C1230.41 21.3113 1242.58 9.14131 1257.59 9.14131C1272.61 9.14131 1284.78 21.3113 1284.78 36.3223C1284.78 51.3343 1272.61 63.5043 1257.59 63.5043ZM1257.59 5.19131C1240.4 5.19131 1226.46 19.1293 1226.46 36.3223C1226.46 53.5163 1240.4 67.4533 1257.59 67.4533C1274.79 67.4533 1288.72 53.5163 1288.72 36.3223C1288.72 19.1293 1274.79 5.19131 1257.59 5.19131Z" fill="#231F20"/>
    <path d="M1271.92 20.8833V31.3683H1267.9C1262.5 31.3683 1260.56 34.3203 1260.56 39.3423V54.0993H1248.06V20.9463H1258.3L1259.11 25.9693C1260.68 22.0143 1264.26 20.1303 1268.22 20.1303C1270.54 20.1303 1271.92 20.8833 1271.92 20.8833Z" fill="#231F20"/>
</svg>
